# xmcd
#
# Track frame offsets: 
#        150
#        16681
#        36594
#        56060
#        82675
#        106933
#        128714
#        158342
#        181747
#        207134
#
# Disc length: 3041 seconds
#
# Revision: 0
# Processed by: cddbd v1.5.2PL0 Copyright (c) Steve Scherf et al.
# Submitted via: ExactAudioCopy v1.0b3
#
DISCID=6c0bdf0a
DTITLE=Tuan Vu - Nguoi Xa Ve Thanh Pho
DYEAR=2011
DGENRE=
TTITLE0=Nguoi xa ve thanh pho
TTITLE1=Dem buon tinh le
TTITLE2=Khuya nay anh di roi
TTITLE3=Nguoi em xom dao
TTITLE4=Tam su nguoi linh tre
TTITLE5=Nhung ngay xua than ai
TTITLE6=Gia tu vu khi
TTITLE7=Chuyen di ve sang
TTITLE8=Nguoi nhap cuoc
TTITLE9=Doan lu thu
EXTD=
EXTT0=
EXTT1=
EXTT2=
EXTT3=
EXTT4=
EXTT5=
EXTT6=
EXTT7=
EXTT8=
EXTT9=
PLAYORDER=
